<svg width="394" height="61" viewBox="0 0 394 61" fill="none" xmlns="http://www.w3.org/2000/svg">
<path d="M116.004 26V15.8182H117.849V20.1286H122.567V15.8182H124.416V26H122.567V21.6747H117.849V26H116.004ZM128.54 26.1541C128.056 26.1541 127.62 26.0679 127.233 25.8956C126.848 25.7199 126.543 25.4614 126.318 25.12C126.096 24.7786 125.985 24.3577 125.985 23.8572C125.985 23.4264 126.064 23.0701 126.223 22.7884C126.382 22.5066 126.6 22.2812 126.875 22.1122C127.15 21.9432 127.46 21.8156 127.804 21.7294C128.152 21.6399 128.512 21.5753 128.883 21.5355C129.331 21.4891 129.694 21.4477 129.972 21.4112C130.25 21.3714 130.453 21.3118 130.578 21.2322C130.708 21.1494 130.772 21.0218 130.772 20.8494V20.8196C130.772 20.4451 130.661 20.1551 130.439 19.9496C130.217 19.7441 129.897 19.6413 129.48 19.6413C129.039 19.6413 128.689 19.7375 128.431 19.9297C128.176 20.1219 128.003 20.349 127.914 20.6108L126.233 20.3722C126.366 19.9081 126.585 19.5204 126.89 19.2088C127.194 18.8939 127.567 18.6586 128.008 18.5028C128.449 18.3438 128.936 18.2642 129.47 18.2642C129.838 18.2642 130.204 18.3073 130.569 18.3935C130.933 18.4796 131.266 18.6222 131.568 18.821C131.869 19.0166 132.111 19.2834 132.294 19.6214C132.479 19.9595 132.572 20.3821 132.572 20.8892V26H130.842V24.951H130.782C130.673 25.1631 130.519 25.362 130.32 25.5476C130.124 25.7299 129.877 25.8774 129.579 25.9901C129.284 26.0994 128.938 26.1541 128.54 26.1541ZM129.007 24.8317C129.369 24.8317 129.682 24.7604 129.947 24.6179C130.212 24.4721 130.416 24.2798 130.559 24.0412C130.704 23.8026 130.777 23.5424 130.777 23.2607V22.3608C130.721 22.4072 130.625 22.4503 130.489 22.4901C130.356 22.5298 130.207 22.5646 130.042 22.5945C129.876 22.6243 129.712 22.6508 129.549 22.674C129.387 22.6972 129.246 22.7171 129.127 22.7337C128.858 22.7701 128.618 22.8298 128.406 22.9126C128.194 22.9955 128.026 23.1115 127.904 23.2607C127.781 23.4065 127.72 23.5954 127.72 23.8274C127.72 24.1589 127.841 24.4091 128.083 24.5781C128.325 24.7472 128.633 24.8317 129.007 24.8317ZM134.382 28.8636V18.3636H136.152V19.6264H136.256C136.349 19.4408 136.48 19.2436 136.649 19.0348C136.818 18.8227 137.047 18.642 137.335 18.4929C137.623 18.3404 137.991 18.2642 138.439 18.2642C139.029 18.2642 139.56 18.415 140.034 18.7166C140.512 19.0149 140.89 19.4574 141.168 20.044C141.45 20.6274 141.591 21.3433 141.591 22.1918C141.591 23.0303 141.453 23.7429 141.178 24.3295C140.903 24.9162 140.528 25.3636 140.054 25.6719C139.58 25.9801 139.043 26.1342 138.444 26.1342C138.006 26.1342 137.643 26.0613 137.355 25.9155C137.066 25.7696 136.834 25.594 136.659 25.3885C136.486 25.1797 136.352 24.9825 136.256 24.7969H136.181V28.8636H134.382ZM136.147 22.1818C136.147 22.6757 136.216 23.1082 136.355 23.4794C136.498 23.8506 136.702 24.1406 136.967 24.3494C137.235 24.5549 137.56 24.6577 137.941 24.6577C138.339 24.6577 138.672 24.5516 138.941 24.3395C139.209 24.1241 139.411 23.8307 139.547 23.4595C139.686 23.085 139.756 22.6591 139.756 22.1818C139.756 21.7079 139.688 21.2869 139.552 20.919C139.416 20.5511 139.214 20.2628 138.946 20.054C138.677 19.8452 138.342 19.7408 137.941 19.7408C137.557 19.7408 137.23 19.8419 136.962 20.044C136.694 20.2462 136.49 20.5296 136.35 20.8942C136.215 21.2588 136.147 21.688 136.147 22.1818ZM143.132 28.8636V18.3636H144.902V19.6264H145.006C145.099 19.4408 145.23 19.2436 145.399 19.0348C145.568 18.8227 145.797 18.642 146.085 18.4929C146.373 18.3404 146.741 18.2642 147.189 18.2642C147.779 18.2642 148.31 18.415 148.784 18.7166C149.262 19.0149 149.64 19.4574 149.918 20.044C150.2 20.6274 150.341 21.3433 150.341 22.1918C150.341 23.0303 150.203 23.7429 149.928 24.3295C149.653 24.9162 149.278 25.3636 148.804 25.6719C148.33 25.9801 147.793 26.1342 147.194 26.1342C146.756 26.1342 146.393 26.0613 146.105 25.9155C145.816 25.7696 145.584 25.594 145.409 25.3885C145.236 25.1797 145.102 24.9825 145.006 24.7969H144.931V28.8636H143.132ZM144.897 22.1818C144.897 22.6757 144.966 23.1082 145.105 23.4794C145.248 23.8506 145.452 24.1406 145.717 24.3494C145.985 24.5549 146.31 24.6577 146.691 24.6577C147.089 24.6577 147.422 24.5516 147.691 24.3395C147.959 24.1241 148.161 23.8307 148.297 23.4595C148.436 23.085 148.506 22.6591 148.506 22.1818C148.506 21.7079 148.438 21.2869 148.302 20.919C148.166 20.5511 147.964 20.2628 147.696 20.054C147.427 19.8452 147.092 19.7408 146.691 19.7408C146.307 19.7408 145.98 19.8419 145.712 20.044C145.444 20.2462 145.24 20.5296 145.1 20.8942C144.965 21.2588 144.897 21.688 144.897 22.1818ZM152.741 28.8636C152.495 28.8636 152.268 28.8438 152.059 28.804C151.854 28.7675 151.69 28.7244 151.567 28.6747L151.985 27.2727C152.247 27.349 152.48 27.3854 152.686 27.3821C152.891 27.3788 153.072 27.3142 153.228 27.1882C153.387 27.0656 153.521 26.8601 153.631 26.5717L153.785 26.1591L151.015 18.3636H152.925L154.684 24.1307H154.764L156.529 18.3636H158.443L155.385 26.9247C155.243 27.3291 155.054 27.6754 154.819 27.9638C154.583 28.2554 154.295 28.4775 153.954 28.63C153.616 28.7857 153.211 28.8636 152.741 28.8636ZM124.719 36.2536H122.86C122.807 35.9486 122.709 35.6785 122.567 35.4432C122.424 35.2045 122.247 35.0024 122.035 34.8366C121.823 34.6709 121.581 34.5466 121.309 34.4638C121.04 34.3776 120.75 34.3345 120.439 34.3345C119.885 34.3345 119.395 34.4737 118.967 34.7521C118.54 35.0272 118.205 35.4316 117.963 35.9652C117.721 36.4955 117.6 37.1435 117.6 37.9091C117.6 38.688 117.721 39.3442 117.963 39.8778C118.208 40.4081 118.543 40.8092 118.967 41.081C119.395 41.3494 119.884 41.4837 120.434 41.4837C120.739 41.4837 121.024 41.4439 121.289 41.3643C121.558 41.2815 121.798 41.1605 122.01 41.0014C122.225 40.8423 122.406 40.6468 122.552 40.4148C122.701 40.1828 122.804 39.9176 122.86 39.6193L124.719 39.6293C124.65 40.1132 124.499 40.5672 124.267 40.9915C124.038 41.4157 123.738 41.7902 123.367 42.1151C122.996 42.4366 122.562 42.6884 122.065 42.8707C121.567 43.0497 121.016 43.1392 120.409 43.1392C119.514 43.1392 118.715 42.9321 118.013 42.5178C117.31 42.1035 116.757 41.5052 116.352 40.723C115.948 39.9408 115.746 39.0028 115.746 37.9091C115.746 36.812 115.95 35.8741 116.357 35.0952C116.765 34.313 117.32 33.7147 118.023 33.3004C118.725 32.8861 119.521 32.679 120.409 32.679C120.976 32.679 121.503 32.7585 121.99 32.9176C122.477 33.0767 122.911 33.3104 123.293 33.6186C123.674 33.9235 123.987 34.2981 124.232 34.7422C124.481 35.183 124.643 35.6868 124.719 36.2536ZM131.196 39.7884V35.3636H132.996V43H131.251V41.6428H131.171C130.999 42.0703 130.716 42.42 130.321 42.6918C129.93 42.9635 129.448 43.0994 128.874 43.0994C128.374 43.0994 127.932 42.9884 127.547 42.7663C127.166 42.541 126.868 42.2145 126.652 41.7869C126.437 41.3561 126.329 40.8357 126.329 40.2259V35.3636H128.129V39.9474C128.129 40.4313 128.261 40.8158 128.526 41.1009C128.792 41.3859 129.14 41.5284 129.57 41.5284C129.836 41.5284 130.093 41.4638 130.341 41.3345C130.59 41.2053 130.794 41.013 130.953 40.7578C131.115 40.4993 131.196 40.1761 131.196 39.7884ZM140.882 37.3821L139.241 37.5611C139.195 37.3954 139.114 37.2396 138.998 37.0938C138.885 36.9479 138.733 36.8303 138.54 36.7408C138.348 36.6513 138.113 36.6065 137.835 36.6065C137.46 36.6065 137.145 36.6877 136.89 36.8501C136.638 37.0125 136.514 37.223 136.517 37.4815C136.514 37.7036 136.595 37.8842 136.761 38.0234C136.93 38.1626 137.208 38.277 137.596 38.3665L138.898 38.6449C139.621 38.8007 140.158 39.0476 140.509 39.3857C140.864 39.7237 141.043 40.1662 141.046 40.7131C141.043 41.1937 140.902 41.6179 140.624 41.9858C140.348 42.3504 139.966 42.6354 139.475 42.8409C138.985 43.0464 138.421 43.1491 137.785 43.1491C136.85 43.1491 136.098 42.9536 135.528 42.5625C134.958 42.1681 134.618 41.6196 134.509 40.9169L136.263 40.7479C136.343 41.0926 136.512 41.3527 136.771 41.5284C137.029 41.7041 137.366 41.7919 137.78 41.7919C138.207 41.7919 138.55 41.7041 138.809 41.5284C139.071 41.3527 139.202 41.1357 139.202 40.8771C139.202 40.6584 139.117 40.4777 138.948 40.3352C138.782 40.1927 138.524 40.0833 138.173 40.0071L136.87 39.7337C136.138 39.5812 135.596 39.3243 135.244 38.9631C134.893 38.5985 134.719 38.1378 134.722 37.581C134.719 37.1103 134.847 36.7027 135.105 36.358C135.367 36.0099 135.73 35.7415 136.194 35.5526C136.661 35.3603 137.2 35.2642 137.81 35.2642C138.705 35.2642 139.409 35.4548 139.923 35.8359C140.44 36.2171 140.759 36.7325 140.882 37.3821ZM146.343 35.3636V36.7557H141.953V35.3636H146.343ZM143.037 33.5341H144.837V40.7031C144.837 40.9451 144.873 41.1307 144.946 41.2599C145.023 41.3859 145.122 41.4721 145.245 41.5185C145.367 41.5649 145.503 41.5881 145.652 41.5881C145.765 41.5881 145.868 41.5798 145.961 41.5632C146.057 41.5466 146.13 41.5317 146.179 41.5185L146.483 42.9254C146.386 42.9586 146.249 42.995 146.07 43.0348C145.894 43.0746 145.679 43.0978 145.424 43.1044C144.973 43.1177 144.567 43.0497 144.206 42.9006C143.844 42.7481 143.558 42.5128 143.346 42.1946C143.137 41.8764 143.034 41.4787 143.037 41.0014V33.5341ZM151.097 43.1491C150.352 43.1491 149.705 42.9851 149.159 42.657C148.612 42.3288 148.187 41.8698 147.886 41.2798C147.588 40.6899 147.438 40.0005 147.438 39.2116C147.438 38.4228 147.588 37.7318 147.886 37.1385C148.187 36.5452 148.612 36.0845 149.159 35.7564C149.705 35.4283 150.352 35.2642 151.097 35.2642C151.843 35.2642 152.49 35.4283 153.036 35.7564C153.583 36.0845 154.006 36.5452 154.304 37.1385C154.606 37.7318 154.757 38.4228 154.757 39.2116C154.757 40.0005 154.606 40.6899 154.304 41.2798C154.006 41.8698 153.583 42.3288 153.036 42.657C152.49 42.9851 151.843 43.1491 151.097 43.1491ZM151.107 41.7074C151.512 41.7074 151.85 41.5964 152.122 41.3743C152.393 41.1489 152.596 40.8473 152.728 40.4695C152.864 40.0916 152.932 39.6707 152.932 39.2067C152.932 38.7393 152.864 38.3168 152.728 37.9389C152.596 37.5578 152.393 37.2545 152.122 37.0291C151.85 36.8037 151.512 36.6911 151.107 36.6911C150.693 36.6911 150.348 36.8037 150.073 37.0291C149.802 37.2545 149.598 37.5578 149.462 37.9389C149.329 38.3168 149.263 38.7393 149.263 39.2067C149.263 39.6707 149.329 40.0916 149.462 40.4695C149.598 40.8473 149.802 41.1489 150.073 41.3743C150.348 41.5964 150.693 41.7074 151.107 41.7074ZM156.284 43V35.3636H158.004V36.6612H158.094C158.253 36.2237 158.516 35.8823 158.884 35.6371C159.252 35.3885 159.691 35.2642 160.202 35.2642C160.719 35.2642 161.155 35.3902 161.509 35.642C161.867 35.8906 162.119 36.2304 162.265 36.6612H162.344C162.513 36.237 162.799 35.8989 163.2 35.647C163.604 35.3918 164.083 35.2642 164.636 35.2642C165.339 35.2642 165.912 35.4863 166.357 35.9304C166.801 36.3745 167.023 37.0225 167.023 37.8743V43H165.218V38.1527C165.218 37.6787 165.092 37.3324 164.84 37.1136C164.588 36.8916 164.28 36.7805 163.915 36.7805C163.481 36.7805 163.142 36.9164 162.896 37.1882C162.654 37.4567 162.533 37.8063 162.533 38.2372V43H160.768V38.0781C160.768 37.6837 160.649 37.3688 160.411 37.1335C160.175 36.8982 159.867 36.7805 159.486 36.7805C159.227 36.7805 158.992 36.8468 158.78 36.9794C158.568 37.1087 158.399 37.2926 158.273 37.5312C158.147 37.7666 158.084 38.0417 158.084 38.3565V43H156.284ZM172.229 43.1491C171.464 43.1491 170.802 42.9901 170.246 42.6719C169.692 42.3504 169.266 41.8963 168.968 41.3097C168.67 40.7197 168.52 40.0253 168.52 39.2266C168.52 38.4411 168.67 37.7517 168.968 37.1584C169.269 36.5618 169.69 36.0978 170.231 35.7663C170.771 35.4316 171.406 35.2642 172.135 35.2642C172.605 35.2642 173.05 35.3404 173.467 35.4929C173.888 35.642 174.259 35.8741 174.581 36.1889C174.906 36.5038 175.161 36.9048 175.346 37.392C175.532 37.8759 175.625 38.4527 175.625 39.1222V39.674H169.366V38.4609H173.9C173.896 38.1162 173.822 37.8097 173.676 37.5412C173.53 37.2694 173.326 37.0556 173.064 36.8999C172.806 36.7441 172.504 36.6662 172.16 36.6662C171.792 36.6662 171.469 36.7557 171.19 36.9347C170.912 37.1103 170.695 37.3423 170.539 37.6307C170.386 37.9157 170.309 38.2289 170.305 38.5703V39.6293C170.305 40.0734 170.386 40.4545 170.549 40.7727C170.711 41.0876 170.938 41.3295 171.23 41.4986C171.522 41.6643 171.863 41.7472 172.254 41.7472C172.516 41.7472 172.753 41.7107 172.965 41.6378C173.177 41.5616 173.361 41.4505 173.517 41.3047C173.673 41.1589 173.79 40.9782 173.87 40.7628L175.55 40.9517C175.444 41.3958 175.242 41.7836 174.944 42.1151C174.649 42.4432 174.271 42.6984 173.81 42.8807C173.349 43.0597 172.823 43.1491 172.229 43.1491ZM177.147 43V35.3636H178.892V36.6364H178.972C179.111 36.1955 179.35 35.8558 179.688 35.6172C180.029 35.3752 180.419 35.2543 180.856 35.2543C180.956 35.2543 181.067 35.2592 181.189 35.2692C181.315 35.2758 181.42 35.2874 181.502 35.304V36.9595C181.426 36.933 181.305 36.9098 181.14 36.8899C180.977 36.8667 180.82 36.8551 180.667 36.8551C180.339 36.8551 180.044 36.9264 179.782 37.0689C179.524 37.2081 179.32 37.402 179.171 37.6506C179.022 37.8991 178.947 38.1858 178.947 38.5107V43H177.147ZM188.734 37.3821L187.093 37.5611C187.047 37.3954 186.965 37.2396 186.849 37.0938C186.737 36.9479 186.584 36.8303 186.392 36.7408C186.2 36.6513 185.964 36.6065 185.686 36.6065C185.312 36.6065 184.997 36.6877 184.741 36.8501C184.49 37.0125 184.365 37.223 184.369 37.4815C184.365 37.7036 184.446 37.8842 184.612 38.0234C184.781 38.1626 185.06 38.277 185.447 38.3665L186.75 38.6449C187.473 38.8007 188.009 39.0476 188.361 39.3857C188.715 39.7237 188.894 40.1662 188.898 40.7131C188.894 41.1937 188.754 41.6179 188.475 41.9858C188.2 42.3504 187.817 42.6354 187.327 42.8409C186.836 43.0464 186.273 43.1491 185.636 43.1491C184.702 43.1491 183.949 42.9536 183.379 42.5625C182.809 42.1681 182.469 41.6196 182.36 40.9169L184.115 40.7479C184.195 41.0926 184.364 41.3527 184.622 41.5284C184.881 41.7041 185.217 41.7919 185.631 41.7919C186.059 41.7919 186.402 41.7041 186.661 41.5284C186.922 41.3527 187.053 41.1357 187.053 40.8771C187.053 40.6584 186.969 40.4777 186.8 40.3352C186.634 40.1927 186.375 40.0833 186.024 40.0071L184.722 39.7337C183.989 39.5812 183.447 39.3243 183.096 38.9631C182.745 38.5985 182.571 38.1378 182.574 37.581C182.571 37.1103 182.698 36.7027 182.957 36.358C183.219 36.0099 183.581 35.7415 184.045 35.5526C184.513 35.3603 185.051 35.2642 185.661 35.2642C186.556 35.2642 187.26 35.4548 187.774 35.8359C188.291 36.2171 188.611 36.7325 188.734 37.3821Z" fill="#489FB5"/>
<path d="M13.5 37.85C13.5 38.4167 13.7833 38.75 14.35 38.85L17.85 39.45V42H1.95V39.45L6.25 38.8C6.55 38.7667 6.76667 38.6667 6.9 38.5C7.06667 38.3333 7.15 38.1 7.15 37.8V22.6C6.78333 22.6667 6.31667 22.7333 5.75 22.8C5.18333 22.8667 4.6 22.9333 4 23C3.4 23.0333 2.86667 23.05 2.4 23.05L1.95 20.35C2.91667 20.1167 3.93333 19.7833 5 19.35C6.06667 18.8833 7.06667 18.3833 8 17.85C8.93333 17.3167 9.68333 16.8 10.25 16.3L13.5 16.85V37.85ZM21.1324 35.85C21.1324 34.0167 21.8158 32.4667 23.1824 31.2C24.5824 29.9333 26.3658 29.2 28.5324 29L30.5324 30.1C29.3991 30.5333 28.5158 31.2167 27.8824 32.15C27.2491 33.0833 26.9324 34.1333 26.9324 35.3C26.9324 36.7667 27.3824 37.8667 28.2824 38.6C29.2158 39.3333 30.2491 39.7 31.3824 39.7C32.5491 39.7 33.4324 39.3833 34.0324 38.75C34.6324 38.0833 34.9324 37.3333 34.9324 36.5C34.9324 35.6333 34.6491 34.9167 34.0824 34.35C33.5491 33.75 32.8324 33.2 31.9324 32.7C31.0324 32.2 30.0324 31.6667 28.9324 31.1C27.9658 30.6 26.9658 30.0167 25.9324 29.35C24.9324 28.65 24.0824 27.8333 23.3824 26.9C22.7158 25.9333 22.3824 24.7833 22.3824 23.45C22.3824 21.35 23.1991 19.6333 24.8324 18.3C26.4991 16.9667 28.7491 16.3 31.5824 16.3C34.2491 16.3 36.3658 16.8167 37.9324 17.85C39.4991 18.8833 40.2824 20.35 40.2824 22.25C40.2824 23.3167 39.9658 24.3 39.3324 25.2C38.7324 26.1 37.9158 26.85 36.8824 27.45C35.8491 28.0167 34.6991 28.3833 33.4324 28.55L31.5324 27.55C32.7991 26.9833 33.6324 26.2333 34.0324 25.3C34.4324 24.3333 34.6324 23.4833 34.6324 22.75C34.6324 21.4833 34.3158 20.55 33.6824 19.95C33.0491 19.3167 32.2491 19 31.2824 19C30.3824 19 29.6658 19.25 29.1324 19.75C28.5991 20.2167 28.3324 20.8833 28.3324 21.75C28.3324 22.9833 28.8991 23.9833 30.0324 24.75C31.1658 25.5167 32.5324 26.2833 34.1324 27.05C35.2991 27.6167 36.4491 28.25 37.5824 28.95C38.7491 29.6167 39.7158 30.45 40.4824 31.45C41.2491 32.4167 41.6324 33.65 41.6324 35.15C41.6324 36.6833 41.1824 38 40.2824 39.1C39.4158 40.2 38.1824 41.05 36.5824 41.65C34.9824 42.2167 33.1324 42.5 31.0324 42.5C29.0658 42.5 27.3324 42.25 25.8324 41.75C24.3324 41.25 23.1658 40.5 22.3324 39.5C21.5324 38.5 21.1324 37.2833 21.1324 35.85ZM70.6117 42V39.4L71.7117 39.05C72.0117 38.95 72.2284 38.8333 72.3617 38.7C72.4951 38.5333 72.5617 38.3 72.5617 38V29.1C72.5617 27.3667 72.3117 26.1333 71.8117 25.4C71.3117 24.6333 70.5117 24.25 69.4117 24.25C68.7784 24.25 68.0951 24.3833 67.3617 24.65C66.6284 24.9167 65.9117 25.35 65.2117 25.95L65.1617 23.95C66.0617 22.7167 67.1617 21.8167 68.4617 21.25C69.7951 20.65 71.2284 20.35 72.7617 20.35C75.2284 20.35 76.8951 21.05 77.7617 22.45C78.6617 23.85 79.1117 25.8167 79.1117 28.35V38C79.1117 38.6 79.3951 38.95 79.9617 39.05L81.9617 39.4V42H70.6117ZM44.7117 42V39.4L46.7117 39.05C47.2451 38.95 47.5117 38.6 47.5117 38V25.65C47.5117 25.05 47.2451 24.7 46.7117 24.6L44.5117 24.15V21.45C45.7784 21.1167 47.1117 20.8667 48.5117 20.7C49.9117 20.5333 51.2284 20.4333 52.4617 20.4L53.4117 21.2L54.1117 24.9V38C54.1117 38.5333 54.3617 38.8833 54.8617 39.05L56.0617 39.4V42H44.7117ZM58.1117 42V39.4L59.2117 39.05C59.4784 38.95 59.6784 38.8333 59.8117 38.7C59.9784 38.5333 60.0617 38.3 60.0617 38V28.9C60.0617 27.2 59.8117 26 59.3117 25.3C58.8451 24.6 58.0617 24.25 56.9617 24.25C56.3284 24.25 55.6284 24.3833 54.8617 24.65C54.1284 24.9167 53.4784 25.3333 52.9117 25.9V24.1C53.7451 22.8333 54.7784 21.9 56.0117 21.3C57.2784 20.6667 58.6951 20.35 60.2617 20.35C62.7284 20.35 64.3951 21.0333 65.2617 22.4C66.1617 23.7667 66.6117 25.7 66.6117 28.2V38C66.6117 38.5 66.8784 38.85 67.4117 39.05L68.5617 39.4V42H58.1117ZM91.2648 38.5V34.5L91.4148 31.75L88.6648 31.85H84.9148V27.85H88.6648L91.4148 28L91.2648 25.25V21.2H95.6648V25.25L95.5148 28L98.2648 27.85H102.015V31.85H98.2648L95.5148 31.75L95.6648 34.5V38.5H91.2648Z" fill="black"/>
<path d="M318.308 15.8182H320.391L322.882 20.3224H322.982L325.472 15.8182H327.555L323.852 22.2017V26H322.012V22.2017L318.308 15.8182ZM330.741 26.1491C329.975 26.1491 329.314 25.9901 328.757 25.6719C328.204 25.3504 327.778 24.8963 327.48 24.3097C327.181 23.7197 327.032 23.0253 327.032 22.2266C327.032 21.4411 327.181 20.7517 327.48 20.1584C327.781 19.5618 328.202 19.0978 328.742 18.7663C329.283 18.4316 329.917 18.2642 330.646 18.2642C331.117 18.2642 331.561 18.3404 331.979 18.4929C332.4 18.642 332.771 18.8741 333.093 19.1889C333.417 19.5038 333.673 19.9048 333.858 20.392C334.044 20.8759 334.137 21.4527 334.137 22.1222V22.674H327.877V21.4609H332.411C332.408 21.1162 332.334 20.8097 332.188 20.5412C332.042 20.2694 331.838 20.0556 331.576 19.8999C331.318 19.7441 331.016 19.6662 330.671 19.6662C330.303 19.6662 329.98 19.7557 329.702 19.9347C329.423 20.1103 329.206 20.3423 329.051 20.6307C328.898 20.9157 328.82 21.2289 328.817 21.5703V22.6293C328.817 23.0734 328.898 23.4545 329.061 23.7727C329.223 24.0876 329.45 24.3295 329.742 24.4986C330.033 24.6643 330.375 24.7472 330.766 24.7472C331.028 24.7472 331.265 24.7107 331.477 24.6378C331.689 24.5616 331.873 24.4505 332.029 24.3047C332.184 24.1589 332.302 23.9782 332.382 23.7628L334.062 23.9517C333.956 24.3958 333.754 24.7836 333.455 25.1151C333.16 25.4432 332.783 25.6984 332.322 25.8807C331.861 26.0597 331.334 26.1491 330.741 26.1491ZM337.857 26.1541C337.373 26.1541 336.937 26.0679 336.549 25.8956C336.165 25.7199 335.86 25.4614 335.634 25.12C335.412 24.7786 335.301 24.3577 335.301 23.8572C335.301 23.4264 335.381 23.0701 335.54 22.7884C335.699 22.5066 335.916 22.2812 336.191 22.1122C336.466 21.9432 336.776 21.8156 337.121 21.7294C337.469 21.6399 337.828 21.5753 338.2 21.5355C338.647 21.4891 339.01 21.4477 339.288 21.4112C339.567 21.3714 339.769 21.3118 339.895 21.2322C340.024 21.1494 340.089 21.0218 340.089 20.8494V20.8196C340.089 20.4451 339.978 20.1551 339.756 19.9496C339.534 19.7441 339.214 19.6413 338.796 19.6413C338.355 19.6413 338.006 19.7375 337.747 19.9297C337.492 20.1219 337.32 20.349 337.23 20.6108L335.55 20.3722C335.682 19.9081 335.901 19.5204 336.206 19.2088C336.511 18.8939 336.884 18.6586 337.325 18.5028C337.765 18.3438 338.253 18.2642 338.786 18.2642C339.154 18.2642 339.52 18.3073 339.885 18.3935C340.25 18.4796 340.583 18.6222 340.884 18.821C341.186 19.0166 341.428 19.2834 341.61 19.6214C341.796 19.9595 341.888 20.3821 341.888 20.8892V26H340.158V24.951H340.099C339.989 25.1631 339.835 25.362 339.636 25.5476C339.441 25.7299 339.194 25.8774 338.896 25.9901C338.601 26.0994 338.254 26.1541 337.857 26.1541ZM338.324 24.8317C338.685 24.8317 338.998 24.7604 339.263 24.6179C339.529 24.4721 339.732 24.2798 339.875 24.0412C340.021 23.8026 340.094 23.5424 340.094 23.2607V22.3608C340.037 22.4072 339.941 22.4503 339.805 22.4901C339.673 22.5298 339.524 22.5646 339.358 22.5945C339.192 22.6243 339.028 22.6508 338.866 22.674C338.703 22.6972 338.563 22.7171 338.443 22.7337C338.175 22.7701 337.934 22.8298 337.722 22.9126C337.51 22.9955 337.343 23.1115 337.22 23.2607C337.098 23.4065 337.036 23.5954 337.036 23.8274C337.036 24.1589 337.157 24.4091 337.399 24.5781C337.641 24.7472 337.949 24.8317 338.324 24.8317ZM343.698 26V18.3636H345.443V19.6364H345.523C345.662 19.1955 345.901 18.8558 346.239 18.6172C346.58 18.3752 346.969 18.2543 347.407 18.2543C347.506 18.2543 347.617 18.2592 347.74 18.2692C347.866 18.2758 347.97 18.2874 348.053 18.304V19.9595C347.977 19.933 347.856 19.9098 347.69 19.8899C347.528 19.8667 347.371 19.8551 347.218 19.8551C346.89 19.8551 346.595 19.9264 346.333 20.0689C346.075 20.2081 345.871 20.402 345.722 20.6506C345.572 20.8991 345.498 21.1858 345.498 21.5107V26H343.698ZM355.284 20.3821L353.644 20.5611C353.597 20.3954 353.516 20.2396 353.4 20.0938C353.288 19.9479 353.135 19.8303 352.943 19.7408C352.751 19.6513 352.515 19.6065 352.237 19.6065C351.862 19.6065 351.547 19.6877 351.292 19.8501C351.04 20.0125 350.916 20.223 350.919 20.4815C350.916 20.7036 350.997 20.8842 351.163 21.0234C351.332 21.1626 351.61 21.277 351.998 21.3665L353.301 21.6449C354.023 21.8007 354.56 22.0476 354.912 22.3857C355.266 22.7237 355.445 23.1662 355.449 23.7131C355.445 24.1937 355.304 24.6179 355.026 24.9858C354.751 25.3504 354.368 25.6354 353.877 25.8409C353.387 26.0464 352.824 26.1491 352.187 26.1491C351.252 26.1491 350.5 25.9536 349.93 25.5625C349.36 25.1681 349.02 24.6196 348.911 23.9169L350.666 23.7479C350.745 24.0926 350.914 24.3527 351.173 24.5284C351.431 24.7041 351.768 24.7919 352.182 24.7919C352.61 24.7919 352.953 24.7041 353.211 24.5284C353.473 24.3527 353.604 24.1357 353.604 23.8771C353.604 23.6584 353.52 23.4777 353.35 23.3352C353.185 23.1927 352.926 23.0833 352.575 23.0071L351.272 22.7337C350.54 22.5812 349.998 22.3243 349.647 21.9631C349.295 21.5985 349.121 21.1378 349.125 20.581C349.121 20.1103 349.249 19.7027 349.507 19.358C349.769 19.0099 350.132 18.7415 350.596 18.5526C351.064 18.3603 351.602 18.2642 352.212 18.2642C353.107 18.2642 353.811 18.4548 354.325 18.8359C354.842 19.2171 355.162 19.7325 355.284 20.3821ZM363.736 26.1491C362.99 26.1491 362.344 25.9851 361.797 25.657C361.25 25.3288 360.826 24.8698 360.525 24.2798C360.226 23.6899 360.077 23.0005 360.077 22.2116C360.077 21.4228 360.226 20.7318 360.525 20.1385C360.826 19.5452 361.25 19.0845 361.797 18.7564C362.344 18.4283 362.99 18.2642 363.736 18.2642C364.482 18.2642 365.128 18.4283 365.675 18.7564C366.222 19.0845 366.645 19.5452 366.943 20.1385C367.244 20.7318 367.395 21.4228 367.395 22.2116C367.395 23.0005 367.244 23.6899 366.943 24.2798C366.645 24.8698 366.222 25.3288 365.675 25.657C365.128 25.9851 364.482 26.1491 363.736 26.1491ZM363.746 24.7074C364.15 24.7074 364.489 24.5964 364.76 24.3743C365.032 24.1489 365.234 23.8473 365.367 23.4695C365.503 23.0916 365.571 22.6707 365.571 22.2067C365.571 21.7393 365.503 21.3168 365.367 20.9389C365.234 20.5578 365.032 20.2545 364.76 20.0291C364.489 19.8037 364.15 19.6911 363.746 19.6911C363.332 19.6911 362.987 19.8037 362.712 20.0291C362.44 20.2545 362.236 20.5578 362.1 20.9389C361.968 21.3168 361.902 21.7393 361.902 22.2067C361.902 22.6707 361.968 23.0916 362.1 23.4695C362.236 23.8473 362.44 24.1489 362.712 24.3743C362.987 24.5964 363.332 24.7074 363.746 24.7074ZM372.791 18.3636V19.7557H368.276V18.3636H372.791ZM369.405 26V17.6428C369.405 17.129 369.511 16.7015 369.723 16.3601C369.939 16.0187 370.227 15.7635 370.588 15.5945C370.95 15.4254 371.351 15.3409 371.791 15.3409C372.103 15.3409 372.38 15.3658 372.622 15.4155C372.864 15.4652 373.043 15.5099 373.159 15.5497L372.801 16.9418C372.724 16.9186 372.628 16.8954 372.512 16.8722C372.396 16.8456 372.267 16.8324 372.124 16.8324C371.79 16.8324 371.553 16.9136 371.414 17.076C371.278 17.2351 371.21 17.4638 371.21 17.7621V26H369.405ZM319.004 43V32.8182H325.626V34.3643H320.849V37.1286H325.283V38.6747H320.849V41.4538H325.666V43H319.004ZM328.9 35.3636L330.441 38.1825L332.007 35.3636H333.912L331.61 39.1818L333.951 43H332.057L330.441 40.2507L328.841 43H326.931L329.258 39.1818L326.991 35.3636H328.9ZM335.304 45.8636V35.3636H337.074V36.6264H337.178C337.271 36.4408 337.402 36.2436 337.571 36.0348C337.74 35.8227 337.968 35.642 338.257 35.4929C338.545 35.3404 338.913 35.2642 339.36 35.2642C339.95 35.2642 340.482 35.415 340.956 35.7166C341.434 36.0149 341.811 36.4574 342.09 37.044C342.372 37.6274 342.512 38.3433 342.512 39.1918C342.512 40.0303 342.375 40.7429 342.1 41.3295C341.825 41.9162 341.45 42.3636 340.976 42.6719C340.502 42.9801 339.965 43.1342 339.365 43.1342C338.928 43.1342 338.565 43.0613 338.277 42.9155C337.988 42.7696 337.756 42.594 337.581 42.3885C337.408 42.1797 337.274 41.9825 337.178 41.7969H337.103V45.8636H335.304ZM337.069 39.1818C337.069 39.6757 337.138 40.1082 337.277 40.4794C337.42 40.8506 337.624 41.1406 337.889 41.3494C338.157 41.5549 338.482 41.6577 338.863 41.6577C339.261 41.6577 339.594 41.5516 339.863 41.3395C340.131 41.1241 340.333 40.8307 340.469 40.4595C340.608 40.085 340.678 39.6591 340.678 39.1818C340.678 38.7079 340.61 38.2869 340.474 37.919C340.338 37.5511 340.136 37.2628 339.868 37.054C339.599 36.8452 339.264 36.7408 338.863 36.7408C338.479 36.7408 338.152 36.8419 337.884 37.044C337.615 37.2462 337.412 37.5296 337.272 37.8942C337.136 38.2588 337.069 38.688 337.069 39.1818ZM347.434 43.1491C346.669 43.1491 346.007 42.9901 345.451 42.6719C344.897 42.3504 344.471 41.8963 344.173 41.3097C343.875 40.7197 343.725 40.0253 343.725 39.2266C343.725 38.4411 343.875 37.7517 344.173 37.1584C344.475 36.5618 344.895 36.0978 345.436 35.7663C345.976 35.4316 346.611 35.2642 347.34 35.2642C347.81 35.2642 348.255 35.3404 348.672 35.4929C349.093 35.642 349.464 35.8741 349.786 36.1889C350.111 36.5038 350.366 36.9048 350.551 37.392C350.737 37.8759 350.83 38.4527 350.83 39.1222V39.674H344.571V38.4609H349.105C349.101 38.1162 349.027 37.8097 348.881 37.5412C348.735 37.2694 348.531 37.0556 348.27 36.8999C348.011 36.7441 347.709 36.6662 347.365 36.6662C346.997 36.6662 346.674 36.7557 346.395 36.9347C346.117 37.1103 345.9 37.3423 345.744 37.6307C345.592 37.9157 345.514 38.2289 345.51 38.5703V39.6293C345.51 40.0734 345.592 40.4545 345.754 40.7727C345.916 41.0876 346.143 41.3295 346.435 41.4986C346.727 41.6643 347.068 41.7472 347.459 41.7472C347.721 41.7472 347.958 41.7107 348.17 41.6378C348.382 41.5616 348.566 41.4505 348.722 41.3047C348.878 41.1589 348.995 40.9782 349.075 40.7628L350.755 40.9517C350.649 41.3958 350.447 41.7836 350.149 42.1151C349.854 42.4432 349.476 42.6984 349.015 42.8807C348.555 43.0597 348.028 43.1491 347.434 43.1491ZM352.352 43V35.3636H354.097V36.6364H354.177C354.316 36.1955 354.555 35.8558 354.893 35.6172C355.234 35.3752 355.624 35.2543 356.061 35.2543C356.161 35.2543 356.272 35.2592 356.394 35.2692C356.52 35.2758 356.625 35.2874 356.708 35.304V36.9595C356.631 36.933 356.51 36.9098 356.345 36.8899C356.182 36.8667 356.025 36.8551 355.872 36.8551C355.544 36.8551 355.249 36.9264 354.987 37.0689C354.729 37.2081 354.525 37.402 354.376 37.6506C354.227 37.8991 354.152 38.1858 354.152 38.5107V43H352.352ZM357.903 43V35.3636H359.703V43H357.903ZM358.808 34.2798C358.523 34.2798 358.278 34.1854 358.072 33.9964C357.867 33.8042 357.764 33.5739 357.764 33.3054C357.764 33.0336 357.867 32.8033 358.072 32.6143C358.278 32.4221 358.523 32.326 358.808 32.326C359.096 32.326 359.342 32.4221 359.544 32.6143C359.749 32.8033 359.852 33.0336 359.852 33.3054C359.852 33.5739 359.749 33.8042 359.544 33.9964C359.342 34.1854 359.096 34.2798 358.808 34.2798ZM364.934 43.1491C364.169 43.1491 363.507 42.9901 362.951 42.6719C362.397 42.3504 361.971 41.8963 361.673 41.3097C361.375 40.7197 361.225 40.0253 361.225 39.2266C361.225 38.4411 361.375 37.7517 361.673 37.1584C361.975 36.5618 362.395 36.0978 362.936 35.7663C363.476 35.4316 364.111 35.2642 364.84 35.2642C365.31 35.2642 365.755 35.3404 366.172 35.4929C366.593 35.642 366.964 35.8741 367.286 36.1889C367.611 36.5038 367.866 36.9048 368.051 37.392C368.237 37.8759 368.33 38.4527 368.33 39.1222V39.674H362.071V38.4609H366.605C366.601 38.1162 366.527 37.8097 366.381 37.5412C366.235 37.2694 366.031 37.0556 365.77 36.8999C365.511 36.7441 365.209 36.6662 364.865 36.6662C364.497 36.6662 364.174 36.7557 363.895 36.9347C363.617 37.1103 363.4 37.3423 363.244 37.6307C363.092 37.9157 363.014 38.2289 363.01 38.5703V39.6293C363.01 40.0734 363.092 40.4545 363.254 40.7727C363.416 41.0876 363.643 41.3295 363.935 41.4986C364.227 41.6643 364.568 41.7472 364.959 41.7472C365.221 41.7472 365.458 41.7107 365.67 41.6378C365.882 41.5616 366.066 41.4505 366.222 41.3047C366.378 41.1589 366.495 40.9782 366.575 40.7628L368.255 40.9517C368.149 41.3958 367.947 41.7836 367.649 42.1151C367.354 42.4432 366.976 42.6984 366.515 42.8807C366.055 43.0597 365.528 43.1491 364.934 43.1491ZM371.652 38.5256V43H369.852V35.3636H371.573V36.6612H371.662C371.838 36.2337 372.118 35.8939 372.502 35.642C372.89 35.3902 373.369 35.2642 373.939 35.2642C374.466 35.2642 374.925 35.3769 375.316 35.6023C375.711 35.8277 376.016 36.1541 376.231 36.5817C376.45 37.0092 376.557 37.5279 376.554 38.1378V43H374.754V38.4162C374.754 37.9058 374.622 37.5064 374.357 37.218C374.095 36.9297 373.732 36.7855 373.268 36.7855C372.953 36.7855 372.673 36.8551 372.428 36.9943C372.186 37.1302 371.995 37.3274 371.856 37.5859C371.72 37.8445 371.652 38.1577 371.652 38.5256ZM381.715 43.1491C380.952 43.1491 380.298 42.9818 379.751 42.647C379.207 42.3123 378.788 41.8499 378.493 41.2599C378.201 40.6667 378.056 39.9839 378.056 39.2116C378.056 38.4361 378.205 37.7517 378.503 37.1584C378.801 36.5618 379.222 36.0978 379.766 35.7663C380.313 35.4316 380.959 35.2642 381.705 35.2642C382.325 35.2642 382.873 35.3786 383.35 35.6072C383.831 35.8326 384.214 36.1525 384.499 36.5668C384.784 36.9777 384.946 37.4583 384.986 38.0085H383.266C383.196 37.6406 383.03 37.334 382.769 37.0888C382.51 36.8402 382.164 36.7159 381.73 36.7159C381.362 36.7159 381.039 36.8153 380.76 37.0142C380.482 37.2098 380.265 37.4915 380.109 37.8594C379.956 38.2273 379.88 38.6681 379.88 39.1818C379.88 39.7022 379.956 40.1496 380.109 40.5241C380.261 40.8954 380.475 41.1821 380.75 41.3842C381.029 41.5831 381.355 41.6825 381.73 41.6825C381.995 41.6825 382.232 41.6328 382.441 41.5334C382.653 41.4306 382.83 41.2831 382.972 41.0909C383.115 40.8987 383.213 40.665 383.266 40.3899H384.986C384.943 40.9302 384.784 41.4091 384.509 41.8267C384.234 42.241 383.859 42.5658 383.385 42.8011C382.911 43.0331 382.354 43.1491 381.715 43.1491ZM389.844 43.1491C389.079 43.1491 388.418 42.9901 387.861 42.6719C387.307 42.3504 386.881 41.8963 386.583 41.3097C386.285 40.7197 386.136 40.0253 386.136 39.2266C386.136 38.4411 386.285 37.7517 386.583 37.1584C386.885 36.5618 387.306 36.0978 387.846 35.7663C388.386 35.4316 389.021 35.2642 389.75 35.2642C390.221 35.2642 390.665 35.3404 391.082 35.4929C391.503 35.642 391.875 35.8741 392.196 36.1889C392.521 36.5038 392.776 36.9048 392.962 37.392C393.147 37.8759 393.24 38.4527 393.24 39.1222V39.674H386.981V38.4609H391.515C391.512 38.1162 391.437 37.8097 391.291 37.5412C391.145 37.2694 390.942 37.0556 390.68 36.8999C390.421 36.7441 390.12 36.6662 389.775 36.6662C389.407 36.6662 389.084 36.7557 388.805 36.9347C388.527 37.1103 388.31 37.3423 388.154 37.6307C388.002 37.9157 387.924 38.2289 387.92 38.5703V39.6293C387.92 40.0734 388.002 40.4545 388.164 40.7727C388.326 41.0876 388.554 41.3295 388.845 41.4986C389.137 41.6643 389.478 41.7472 389.869 41.7472C390.131 41.7472 390.368 41.7107 390.58 41.6378C390.792 41.5616 390.976 41.4505 391.132 41.3047C391.288 41.1589 391.406 40.9782 391.485 40.7628L393.165 40.9517C393.059 41.3958 392.857 41.7836 392.559 42.1151C392.264 42.4432 391.886 42.6984 391.425 42.8807C390.965 43.0597 390.438 43.1491 389.844 43.1491Z" fill="#489FB5"/>
<path d="M257.5 37.85C257.5 38.4167 257.783 38.75 258.35 38.85L261.85 39.45V42H245.95V39.45L250.25 38.8C250.55 38.7667 250.767 38.6667 250.9 38.5C251.067 38.3333 251.15 38.1 251.15 37.8V22.6C250.783 22.6667 250.317 22.7333 249.75 22.8C249.183 22.8667 248.6 22.9333 248 23C247.4 23.0333 246.867 23.05 246.4 23.05L245.95 20.35C246.917 20.1167 247.933 19.7833 249 19.35C250.067 18.8833 251.067 18.3833 252 17.85C252.933 17.3167 253.683 16.8 254.25 16.3L257.5 16.85V37.85ZM275.35 19.1C274.617 19.1 274 19.4 273.5 20C273 20.6 272.617 21.5833 272.35 22.95C272.117 24.3167 272 26.1667 272 28.5C272 32.5333 272.267 35.4167 272.8 37.15C273.367 38.85 274.267 39.7 275.5 39.7C276.267 39.7 276.9 39.4 277.4 38.8C277.9 38.1667 278.267 37.1667 278.5 35.8C278.767 34.4 278.9 32.5333 278.9 30.2C278.9 26.1333 278.617 23.2667 278.05 21.6C277.517 19.9333 276.617 19.1 275.35 19.1ZM275.1 42.5C272.567 42.5 270.533 41.95 269 40.85C267.5 39.75 266.417 38.2333 265.75 36.3C265.083 34.3333 264.75 32.1167 264.75 29.65C264.75 26.55 265.217 24.0167 266.15 22.05C267.117 20.0833 268.433 18.6333 270.1 17.7C271.767 16.7667 273.667 16.3 275.8 16.3C278.333 16.3 280.35 16.85 281.85 17.95C283.35 19.0167 284.433 20.5167 285.1 22.45C285.767 24.35 286.1 26.55 286.1 29.05C286.1 32.15 285.633 34.7 284.7 36.7C283.767 38.6667 282.467 40.1333 280.8 41.1C279.167 42.0333 277.267 42.5 275.1 42.5ZM296.642 38.5V34.5L296.792 31.75L294.042 31.85H290.292V27.85H294.042L296.792 28L296.642 25.25V21.2H301.042V25.25L300.892 28L303.642 27.85H307.392V31.85H303.642L300.892 31.75L301.042 34.5V38.5H296.642Z" fill="black"/>
</svg>
